<?xml version="1.0" encoding="UTF-8"?>
<svg version="1.1" xmlns="http://www.w3.org/2000/svg" width="500" height="281">
<path d="M0 0 C2.37312298 1.79587685 3.64611144 3.26863031 4.9375 5.9375 C5.03113967 9.02760919 3.79563107 10.52908886 2 13 C-0.35546875 14.30078125 -0.35546875 14.30078125 -3.1875 15.3125 C-8.4277681 17.33438611 -13.46916052 19.57497505 -18.5 22.0625 C-19.18215576 22.39096924 -19.86431152 22.71943848 -20.56713867 23.05786133 C-24.32937797 24.92986182 -27.22979617 26.82698591 -30 30 C-21.79738481 36.22031652 -12.51192806 39.99022021 -3.02270508 43.79223633 C-0.01824567 45.01930033 1.8703362 45.85461937 4.0625 48.3125 C5.31591804 51.90563172 4.58321875 53.60738838 3 57 C1 59 1 59 -1.875 59.4375 C-12.10136745 59.09803552 -23.50685847 51.94382738 -30.9140625 45.27734375 C-34.92360042 40.94190742 -37.81291424 35.99895816 -38.09375 29.99609375 C-37.55419468 23.10327451 -34.68444079 17.30372713 -29.75 12.5 C-22.27846601 6.34697201 -9.80462683 -1.00047213 0 0 Z " fill="#07B5D4" transform="translate(155,116)"/>
<path d="M0 0 C11.81816372 3.55182009 23.60807196 9.98392262 29.8984375 20.87109375 C31.58411866 25.92813724 31.88724491 31.77362474 30.25 36.90234375 C25.96246466 44.96437601 18.91609638 49.96407585 10.8984375 53.87109375 C9.98320313 54.33902344 9.06796875 54.80695313 8.125 55.2890625 C2.88163805 57.85328197 -1.23840558 59.84828657 -7.1015625 58.87109375 C-9.0390625 57.80859375 -9.0390625 57.80859375 -10.1015625 55.87109375 C-10.47733099 52.42654923 -10.65813732 49.94331877 -9.0390625 46.82421875 C-6.35172715 44.11521134 -3.26905382 43.22127249 0.2734375 42.05859375 C13.68067678 37.69434819 13.68067678 37.69434819 23.8984375 28.87109375 C15.37869325 22.99420894 6.56453598 18.9547956 -3.00976562 15.10351562 C-5.82812301 13.94061532 -7.92357071 13.04908554 -10.1015625 10.87109375 C-10.52468686 7.06297453 -10.59376413 4.72709658 -8.6640625 1.37109375 C-5.60630472 -0.41881324 -3.47935171 -0.56062644 0 0 Z " fill="#06B5D4" transform="translate(61.1015625,116.12890625)"/>
<path d="M0 0 C2.46162959 2.00180645 3.55355935 3.88466119 4.61328125 6.84375 C4.88873779 7.59076172 5.16419434 8.33777344 5.44799805 9.10742188 C5.87592651 10.29174805 5.87592651 10.29174805 6.3125 11.5 C10.19804437 23.91046788 10.19804437 23.91046788 18.17578125 33.28125 C18.77777344 33.5184375 19.37976563 33.755625 20 34 C26.22966464 25.78505762 29.95557494 16.50279587 33.80322266 7.02050781 C34.95820923 4.22102312 35.83579512 2.16420488 38 0 C41.21567216 -0.34952958 43.38358852 -0.25954167 46.375 1 C48.39526978 3.48648588 48.61799989 5.39639855 48.44921875 8.5625 C46.8408111 17.28985975 42.17837199 24.94519546 37 32 C36.401875 32.9075 35.80375 33.815 35.1875 34.75 C30.6796576 39.3866379 25.52617173 42.26921182 19 42.625 C12.34152444 42.21271049 7.68108543 39.5560348 2.90625 35.00390625 C-1.40778911 30.08424242 -4.32901916 24.73502049 -7 18.8125 C-7.30309082 18.14758545 -7.60618164 17.4826709 -7.91845703 16.79760742 C-9.77466251 12.40996493 -10.4420365 8.83850767 -10 4 C-7.25744073 -0.1138389 -4.81424895 -0.7170158 0 0 Z " fill="#08B4D4" transform="translate(86,91)"/>
<path d="M0 0 C11.2170521 6.13826689 17.40891006 18.08610517 21.35546875 29.92578125 C21.82425885 33.7375827 22.17361121 36.8458332 19.79296875 39.98828125 C16.00052372 41.44691395 14.19407131 41.34000325 10.35546875 39.92578125 C8.06048102 36.88849778 6.7830667 33.43529289 5.35546875 29.92578125 C4.49895686 27.89465391 3.63293785 25.86801674 2.75976562 23.84399414 C2.17203193 22.47541879 1.59459369 21.10235975 1.02929688 19.72436523 C-0.98589746 14.95013278 -3.51400511 11.05871902 -6.64453125 6.92578125 C-11.07914745 8.39413195 -12.52734003 11.68579029 -14.51953125 15.61328125 C-14.86395264 16.27158936 -15.20837402 16.92989746 -15.56323242 17.6081543 C-18.61020404 23.56305342 -21.03041971 29.69740089 -23.3203125 35.9765625 C-24.64453125 38.92578125 -24.64453125 38.92578125 -27.64453125 40.92578125 C-30.70056963 41.24411858 -32.77788344 41.38799342 -35.51953125 39.92578125 C-37.56449046 36.29029822 -37.16595466 31.87836589 -36.11279297 27.93457031 C-35.36914651 25.92758428 -34.54161512 23.99398606 -33.64453125 22.05078125 C-33.32983887 21.35750732 -33.01514648 20.6642334 -32.69091797 19.94995117 C-28.69074357 11.48577122 -23.66915592 3.86338036 -14.9921875 -0.2890625 C-9.68204986 -2.06499872 -5.2139504 -2.11792668 0 0 Z " fill="#06B4D4" transform="translate(112.64453125,159.07421875)"/>
<path d="M0 0 C7 0 7 0 8.71264648 1.46875 C9.28607788 2.47421875 9.28607788 2.47421875 9.87109375 3.5 C10.29970703 4.221875 10.72832031 4.94375 11.16992188 5.6875 C11.79737305 6.8321875 11.79737305 6.8321875 12.4375 8 C12.88287109 8.763125 13.32824219 9.52625 13.78710938 10.3125 C14.88202711 12.19622943 15.95095924 14.09046015 17 16 C20.5552157 10.77383293 23.93978541 5.53192638 27 0 C29.31 0 31.62 0 34 0 C34 10.23 34 20.46 34 31 C31.69 31 29.38 31 27 31 C26.67 26.38 26.34 21.76 26 17 C25.113125 18.629375 24.22625 20.25875 23.3125 21.9375 C21.80078125 24.71484375 21.80078125 24.71484375 20 27 C18.35 27.33 16.7 27.66 15 28 C12.69 24.37 10.38 20.74 8 17 C7.67 21.62 7.34 26.24 7 31 C4.69 31 2.38 31 0 31 C0 20.77 0 10.54 0 0 Z " fill="#090D14" transform="translate(191,115)"/>
<path d="M0 0 C2.97 -0.0825 5.94 -0.165 9 -0.25 C10.37865234 -0.30462402 10.37865234 -0.30462402 11.78515625 -0.36035156 C17.63365679 -0.4380975 22.1855643 0.54874801 27 4 C30.68400005 8.20620181 31.60259883 12.32656298 31.3203125 17.859375 C30.63351152 22.44921571 28.861786 25.20284795 25.5 28.3125 C22.00981141 30.6683773 19.44202357 31.12383455 15.33203125 31.09765625 C14.52741455 31.09515869 13.72279785 31.09266113 12.89379883 31.09008789 C11.36855591 31.07643188 11.36855591 31.07643188 9.8125 31.0625 C4.9553125 31.0315625 4.9553125 31.0315625 0 31 C0 20.77 0 10.54 0 0 Z M8 8 C8 13.28 8 18.56 8 24 C14.25203529 24.4587179 14.25203529 24.4587179 20 22.4375 C22.67154038 19.18156016 23.14742311 17.20155864 23 13 C21.33821811 9.83651599 21.33821811 9.83651599 18 8 C14.55140637 7.58995381 11.49477922 7.76701472 8 8 Z " fill="#090D16" transform="translate(265,115)"/>
<path d="M0 0 C2.37312298 1.79587685 3.64611144 3.26863031 4.9375 5.9375 C5.03113967 9.02760919 3.79563107 10.52908886 2 13 C-0.35546875 14.30078125 -0.35546875 14.30078125 -3.1875 15.3125 C-8.44371154 17.33411982 -13.46980375 19.6055888 -18.5 22.125 C-19.18215576 22.46184814 -19.86431152 22.79869629 -20.56713867 23.14575195 C-23.96775908 24.8547275 -26.96536999 26.72224242 -30 29 C-33.06711564 28.72117131 -34.36370706 27.75752863 -37 26 C-35.77456043 19.4643223 -33.0431498 15.34156595 -28 11 C-9.17623879 -1.45985617 -9.17623879 -1.45985617 0 0 Z " fill="#09ADD2" transform="translate(155,116)"/>
<path d="M0 0 C7.59 0 15.18 0 23 0 C23 2.31 23 4.62 23 7 C18.05 7 13.1 7 8 7 C8 8.65 8 10.3 8 12 C12.29 12 16.58 12 21 12 C21 14.31 21 16.62 21 19 C16.71 19 12.42 19 8 19 C8 20.65 8 22.3 8 24 C13.28 24 18.56 24 24 24 C24 26.31 24 28.62 24 31 C16.08 31 8.16 31 0 31 C0 20.77 0 10.54 0 0 Z " fill="#0F1218" transform="translate(431,115)"/>
<path d="M0 0 C7.59 0 15.18 0 23 0 C23 2.31 23 4.62 23 7 C18.05 7 13.1 7 8 7 C8 8.65 8 10.3 8 12 C12.29 12 16.58 12 21 12 C21 14.31 21 16.62 21 19 C16.71 19 12.42 19 8 19 C8 20.65 8 22.3 8 24 C13.28 24 18.56 24 24 24 C24 26.31 24 28.62 24 31 C16.08 31 8.16 31 0 31 C0 20.77 0 10.54 0 0 Z " fill="#0D1118" transform="translate(234,115)"/>
<path d="M0 0 C2 0.125 2 0.125 4 1 C5.53255348 3.11638338 6.10028209 4.28475272 5.734375 6.89453125 C2.92093305 14.96072917 -6.09453157 21.02918491 -13.375 24.703125 C-19.37290584 27.46820183 -24.25912401 29.48739177 -31 29 C-32.9375 27.9375 -32.9375 27.9375 -34 26 C-34.37576849 22.55545548 -34.55657482 20.07222502 -32.9375 16.953125 C-30.25028059 14.24423447 -27.16754128 13.34977944 -23.625 12.1875 C-10.8382894 7.75300362 -10.8382894 7.75300362 0 0 Z " fill="#079FCD" transform="translate(85,146)"/>
<path d="M0 0 C2.825625 -0.0825 5.65125 -0.165 8.5625 -0.25 C9.43849854 -0.28641602 10.31449707 -0.32283203 11.21704102 -0.36035156 C16.98391617 -0.44110735 20.29813865 0.61881752 25 4 C27.39722741 8.4948014 27.32883634 12.1276001 26 17 C23.81008403 19.58297781 22.03168312 21.48415844 19 23 C17.12620395 23.07033769 15.24998898 23.0843022 13.375 23.0625 C12.37210937 23.05347656 11.36921875 23.04445312 10.3359375 23.03515625 C9.56507813 23.02355469 8.79421875 23.01195312 8 23 C8 25.64 8 28.28 8 31 C5.36 31 2.72 31 0 31 C0 20.77 0 10.54 0 0 Z M8 8 C8 10.64 8 13.28 8 16 C13.13725982 16.48489837 13.13725982 16.48489837 17.4375 14 C17.953125 13.34 18.46875 12.68 19 12 C18.43637698 9.95163118 18.43637698 9.95163118 17 8 C13.41410857 7.00815769 11.55287397 6.81570868 8 8 Z " fill="#090D15" transform="translate(303,115)"/>
<path d="M0 0 C5.07234422 -0.51758614 8.20986282 0.03571756 12.24609375 3.27734375 C19.79428867 10.69104967 27.04896692 22.90177707 27.625 33.6875 C27 37 27 37 25.4375 39.0625 C21.64505497 40.5211327 19.83860256 40.414222 16 39 C13.7051136 35.96285063 12.4268565 32.50964106 11 29 C9.86779947 26.30659836 8.71779077 23.62106915 7.5625 20.9375 C7.26851318 20.24906006 6.97452637 19.56062012 6.67163086 18.85131836 C4.33465712 13.4897995 1.54177895 8.67047773 -2 4 C-1.34 2.68 -0.68 1.36 0 0 Z " fill="#09AAD0" transform="translate(107,160)"/>
<path d="M0 0 C1.1171875 3.71875 1.1171875 3.71875 0.0625 6.25 C-0.4634375 7.11625 -0.4634375 7.11625 -1 8 C-1.680625 7.835 -2.36125 7.67 -3.0625 7.5 C-6.4164822 6.92910941 -9.60389805 6.93340977 -13 7 C-13 7.66 -13 8.32 -13 9 C-12.16855469 9.25394531 -11.33710938 9.50789063 -10.48046875 9.76953125 C-9.39378906 10.11371094 -8.30710937 10.45789063 -7.1875 10.8125 C-5.56908203 11.31716797 -5.56908203 11.31716797 -3.91796875 11.83203125 C-1.13003786 12.94795004 0.29696473 13.56460144 2 16 C2.68880655 19.06518917 2.58893897 21.9202274 2 25 C-0.52968474 28.28175318 -2.07731331 29.69243777 -6 31 C-12.38328785 31.65469619 -17.15682467 30.54974923 -23 28 C-22.67 26.02 -22.34 24.04 -22 22 C-18.77500929 20.9494905 -16.70197387 21.0923824 -13.4375 21.9375 C-10.77402567 22.61572028 -8.77579733 23 -6 23 C-6 22.01 -6 21.02 -6 20 C-6.81984375 19.82984375 -7.6396875 19.6596875 -8.484375 19.484375 C-9.56203125 19.24203125 -10.6396875 18.9996875 -11.75 18.75 C-12.81734375 18.51796875 -13.8846875 18.2859375 -14.984375 18.046875 C-18.34888831 16.87888333 -19.86227813 15.82993656 -22 13 C-22.73485077 9.93091738 -22.54779323 7.09845545 -22 4 C-19.91253124 0.60786327 -18.10792168 0.04093581 -14.375 -1.375 C-9.38254079 -2.46768919 -4.85630005 -1.29368649 0 0 Z " fill="#0C0F16" transform="translate(422,116)"/>
<path d="M0 0 C2.46162959 2.00180645 3.55355935 3.88466119 4.61328125 6.84375 C4.88889893 7.59076172 5.1645166 8.33777344 5.44848633 9.10742188 C5.73361084 9.89697266 6.01873535 10.68652344 6.3125 11.5 C10.62595794 23.64894159 10.62595794 23.64894159 18 34 C18 35.32 18 36.64 18 38 C15.8125 39.875 15.8125 39.875 13 41 C5.87692788 39.39730877 1.67165032 33.74709752 -2.21875 27.98828125 C-6.6563974 20.54354384 -10.71835306 12.85611384 -10 4 C-7.25744073 -0.1138389 -4.81424895 -0.7170158 0 0 Z " fill="#0797C8" transform="translate(86,91)"/>
<path d="M0 0 C2.64 0 5.28 0 8 0 C8.33 7.59 8.66 15.18 9 23 C15.32917961 23.52174919 15.32917961 23.52174919 18 22 C18.90833969 19.27498092 19.18359985 17.37766029 19.31640625 14.55078125 C19.35830078 13.70322266 19.40019531 12.85566406 19.44335938 11.98242188 C19.48267578 11.10134766 19.52199219 10.22027344 19.5625 9.3125 C19.60568359 8.41982422 19.64886719 7.52714844 19.69335938 6.60742188 C19.79935353 4.40509892 19.90142051 2.20266527 20 0 C22.31 0 24.62 0 27 0 C27.08732726 3.89569135 27.14050185 7.79112982 27.1875 11.6875 C27.21263672 12.79029297 27.23777344 13.89308594 27.26367188 15.02929688 C27.27333984 16.09599609 27.28300781 17.16269531 27.29296875 18.26171875 C27.3086792 19.24100342 27.32438965 20.22028809 27.34057617 21.22924805 C26.93676729 24.51442868 25.94425763 26.34272321 24 29 C19.44846964 32.06963675 15.34357587 32.79993651 10 32 C6.38495966 30.56762553 3.43632544 29.07746372 1 26 C-0.01973129 22.94080612 -0.11533602 20.87581975 -0.09765625 17.67578125 C-0.09443359 16.64775391 -0.09121094 15.61972656 -0.08789062 14.56054688 C-0.07951172 13.48869141 -0.07113281 12.41683594 -0.0625 11.3125 C-0.05798828 10.22904297 -0.05347656 9.14558594 -0.04882812 8.02929688 C-0.03703743 5.35280915 -0.02058063 2.67643223 0 0 Z " fill="#0A0E15" transform="translate(365,115)"/>
<path d="M0 0 C2.64 0 5.28 0 8 0 C8 7.92 8 15.84 8 24 C12.62 24 17.24 24 22 24 C22 26.31 22 28.62 22 31 C14.74 31 7.48 31 0 31 C0 20.77 0 10.54 0 0 Z " fill="#0C0F17" transform="translate(337,115)"/>
<path d="M0 0 C1.8125 1.3125 1.8125 1.3125 3 3 C3 3.99 3 4.98 3 6 C5.31 6.66 7.62 7.32 10 8 C5.96319815 10.69120123 1.66185237 12.84492709 -2.63867188 15.078125 C-6.59018275 17.1549631 -6.59018275 17.1549631 -10 20 C-13.01305957 19.61121812 -14.39685311 18.73543126 -17 17 C-15.77662342 10.47532489 -12.7344732 6.58685042 -8 2 C-4.76746204 -0.15502531 -3.74849077 -0.46856135 0 0 Z " fill="#0394C9" transform="translate(135,125)"/>
<path d="M0 0 C5.06434704 -0.51677011 8.1940937 0.03650714 12.234375 3.2578125 C18.20364206 9.1478415 21.94890624 15.9128303 24 24 C22.10081393 22.19049772 20.84318717 20.73211141 19.5 18.4375 C18.08195341 15.75281489 18.08195341 15.75281489 15 14 C13.7934375 15.3921875 13.7934375 15.3921875 12.5625 16.8125 C12.11003906 17.33457031 11.65757813 17.85664063 11.19140625 18.39453125 C9.79128769 20.10712971 9.79128769 20.10712971 9 23 C8.45730469 21.96359375 7.91460937 20.9271875 7.35546875 19.859375 C6.63299391 18.48948764 5.91032757 17.11970127 5.1875 15.75 C4.83107422 15.06808594 4.47464844 14.38617188 4.10742188 13.68359375 C2.28746373 10.24403982 0.47369319 7.02773804 -2 4 C-1.34 2.68 -0.68 1.36 0 0 Z " fill="#028DC9" transform="translate(107,160)"/>
<path d="M0 0 C0.33 0.66 0.66 1.32 1 2 C1.99 2.33 2.98 2.66 4 3 C4.33 3.99 4.66 4.98 5 6 C3.68 5.67 2.36 5.34 1 5 C0.87625 5.61875 0.7525 6.2375 0.625 6.875 C0 9 0 9 -2 11 C-2.16687448 13.58354218 -2.16687448 13.58354218 -2 16 C-0.68 15.34 0.64 14.68 2 14 C1.67 13.34 1.34 12.68 1 12 C2.65 11.67 4.3 11.34 6 11 C6 9.35 6 7.7 6 6 C6.99 6.66 7.98 7.32 9 8 C9.66 8 10.32 8 11 8 C8.99142704 14.62829076 4.53623303 19.3223845 -1.25 22.9375 C-6.14043289 25.48685684 -10.59602763 25.50768008 -16 25 C-16 24.01 -16 23.02 -16 22 C-14.68 21.67 -13.36 21.34 -12 21 C-12 20.01 -12 19.02 -12 18 C-10.33333333 16.33333333 -8.66666667 14.66666667 -7 13 C-5.65119191 10.77459709 -4.37921721 8.50083341 -3.1875 6.1875 C-2.58292969 5.02605469 -1.97835937 3.86460938 -1.35546875 2.66796875 C-0.68451172 1.34732422 -0.68451172 1.34732422 0 0 Z " fill="#11B0CD" transform="translate(116,108)"/>
<path d="M0 0 C4.10703441 0.85563217 5.55401113 2.24378009 8 5.625 C8.625 9.125 8.625 9.125 8 12.625 C5.55401113 16.00621991 4.10703441 17.39436783 0 18.25 C-4.10703441 17.39436783 -5.55401113 16.00621991 -8 12.625 C-8.625 9.125 -8.625 9.125 -8 5.625 C-5.55401113 2.24378009 -4.10703441 0.85563217 0 0 Z " fill="#04B6D6" transform="translate(105,78.375)"/>
<path d="M0 0 C4.10703441 0.85563217 5.55401113 2.24378009 8 5.625 C8.625 9.125 8.625 9.125 8 12.625 C5.55401113 16.00621991 4.10703441 17.39436783 0 18.25 C-4.10703441 17.39436783 -5.55401113 16.00621991 -8 12.625 C-8.625 9.125 -8.625 9.125 -8 5.625 C-5.55401113 2.24378009 -4.10703441 0.85563217 0 0 Z " fill="#03B6D6" transform="translate(163,136.375)"/>
<path d="M0 0 C4.10703441 0.85563217 5.55401113 2.24378009 8 5.625 C8.79785988 10.09301531 8.51734028 11.87250505 5.9375 15.625 C3 17.625 3 17.625 -0.5625 17.6875 C-4.30475404 16.5308033 -5.85214665 15.88973709 -8 12.625 C-8.5625 9.1875 -8.5625 9.1875 -8 5.625 C-5.55401113 2.24378009 -4.10703441 0.85563217 0 0 Z " fill="#03B5D7" transform="translate(47,136.375)"/>
<path d="M0 0 C4.10703441 0.85563217 5.55401113 2.24378009 8 5.625 C8.63127485 9.62307408 8.67917484 11.63235985 6.375 15 C3.47615008 16.98342363 1.5012527 17.47911447 -2 17.625 C-5.36056696 16.50481101 -5.96356066 15.67965901 -8 12.625 C-8.57061018 8.22315002 -8.50756062 6.32662792 -5.875 2.6875 C-3 0.625 -3 0.625 0 0 Z " fill="#03B5D3" transform="translate(105,194.375)"/>
<path d="M0 0 C2.85520781 -0.10876982 5.70620561 -0.18766466 8.5625 -0.25 C9.36236328 -0.28351563 10.16222656 -0.31703125 10.98632812 -0.3515625 C16.85301761 -0.44734519 20.21149112 0.55650792 25 4 C27.39722741 8.4948014 27.32883634 12.1276001 26 17 C23.81008403 19.58297781 22.03168312 21.48415844 19 23 C17.12620395 23.07033769 15.24998898 23.0843022 13.375 23.0625 C12.37210937 23.05347656 11.36921875 23.04445312 10.3359375 23.03515625 C9.56507813 23.02355469 8.79421875 23.01195312 8 23 C7.67 24.32 7.34 25.64 7 27 C6.61781233 25.34385343 6.28604898 23.67542976 6 22 C8.10316798 19.89683202 12.48785568 20.55550235 15.3359375 20.37890625 C18.22178086 20.16415406 18.22178086 20.16415406 21 18 C16.38 18 11.76 18 7 18 C6.34 16.02 5.68 14.04 5 12 C3.50113129 10.16310524 3.50113129 10.16310524 2 9 C2.66 9 3.32 9 4 9 C4.33 8.34 4.66 7.68 5 7 C5.99 7 6.98 7 8 7 C8 9.97 8 12.94 8 16 C10.1346875 15.5978125 10.1346875 15.5978125 12.3125 15.1875 C13.11300781 15.03667969 13.91351563 14.88585937 14.73828125 14.73046875 C17.26203243 13.91537122 18.23778471 12.92614229 20 11 C22.1875 10.3125 22.1875 10.3125 24 10 C23.87822312 8.08533633 23.87822312 8.08533633 23 6 C18.64387452 2.52871251 14.52401846 2.46906173 9.1875 2.3125 C8.39923828 2.27833984 7.61097656 2.24417969 6.79882812 2.20898438 C4.86636881 2.12700125 2.93320965 2.06181155 1 2 C0.67 2.99 0.34 3.98 0 5 C0 3.35 0 1.7 0 0 Z " fill="#11151B" transform="translate(303,115)"/>
<path d="M0 0 C3.0625 0.3125 3.0625 0.3125 4.9375 1.3125 C6.76738947 4.56563684 6.24378355 7.62640109 6.0625 11.3125 C6.7225 11.6425 7.3825 11.9725 8.0625 12.3125 C8.6875 15.375 8.6875 15.375 9.0625 18.3125 C5.0625 18.3125 5.0625 18.3125 3.0625 17.3125 C2.7325 18.3025 2.4025 19.2925 2.0625 20.3125 C0.1875 19.6875 0.1875 19.6875 -1.9375 18.3125 C-4.23278946 13.48031166 -5.05286063 7.65754257 -4.9375 2.3125 C-2.9375 0.3125 -2.9375 0.3125 0 0 Z " fill="#02ACD4" transform="translate(82.9375,92.6875)"/>
<path d="M0 0 C1.80078125 0.78515625 1.80078125 0.78515625 3.11328125 2.59765625 C3.94050205 5.22972243 3.71184281 6.20461015 2.80078125 8.78515625 C-0.47593771 13.29504901 -4.49159628 17.77750856 -9.19921875 20.78515625 C-10.18921875 20.45515625 -11.17921875 20.12515625 -12.19921875 19.78515625 C-12.19921875 18.79515625 -12.19921875 17.80515625 -12.19921875 16.78515625 C-11.55984375 16.51703125 -10.92046875 16.24890625 -10.26171875 15.97265625 C-7.86790189 14.89847873 -7.86790189 14.89847873 -7.19921875 11.78515625 C-8.51921875 11.45515625 -9.83921875 11.12515625 -11.19921875 10.78515625 C-10.86921875 10.12515625 -10.53921875 9.46515625 -10.19921875 8.78515625 C-11.84921875 8.78515625 -13.49921875 8.78515625 -15.19921875 8.78515625 C-12.39062279 6.66594294 -9.57431125 4.56347493 -6.69921875 2.53515625 C-5.94640625 1.99375 -5.19359375 1.45234375 -4.41796875 0.89453125 C-2.19921875 -0.21484375 -2.19921875 -0.21484375 0 0 Z " fill="#078AC3" transform="translate(87.19921875,146.21484375)"/>
<path d="M0 0 C1.32 0 2.64 0 4 0 C6.105184 3.157776 6.25289344 3.95397134 6.1875 7.5625 C6.18105469 8.34753906 6.17460937 9.13257813 6.16796875 9.94140625 C6 12 6 12 5 14 C4.38125 14.28875 3.7625 14.5775 3.125 14.875 C0.86498867 15.84409406 0.86498867 15.84409406 -0.25 18 C-2.91956421 21.05093052 -6.08791 21.42534271 -10 22 C-13.5 22.125 -13.5 22.125 -16 22 C-15.67 20.68 -15.34 19.36 -15 18 C-13.9275 17.87625 -12.855 17.7525 -11.75 17.625 C-7.55239456 17.011271 -7.55239456 17.011271 -4 15 C-3.24097015 12.65390774 -3.04088891 10.40967541 -2.796875 7.96484375 C-2.16535132 2.16535132 -2.16535132 2.16535132 0 0 Z " fill="#080C14" transform="translate(290,123)"/>
<path d="M0 0 C0 0.66 0 1.32 0 2 C-0.92683594 2.34933594 -1.85367188 2.69867188 -2.80859375 3.05859375 C-4.00613281 3.51363281 -5.20367187 3.96867188 -6.4375 4.4375 C-7.63246094 4.88996094 -8.82742187 5.34242188 -10.05859375 5.80859375 C-12.84445723 6.7144826 -12.84445723 6.7144826 -14 8 C-13.81931089 10.48823926 -13.81931089 10.48823926 -13 13 C-12.01 13.66 -11.02 14.32 -10 15 C-8.68 14.34 -7.36 13.68 -6 13 C-6 13.99 -6 14.98 -6 16 C-6.66 16 -7.32 16 -8 16 C-8 16.99 -8 17.98 -8 19 C-11.55353929 20.1845131 -14.27013478 20.26641894 -18 20 C-19.9375 18.9375 -19.9375 18.9375 -21 17 C-21.37242082 13.58614248 -21.5498961 11.0892578 -19.98046875 7.98046875 C-17.07485946 5.07485946 -13.77134026 4.07879344 -9.9375 2.75 C-9.20466797 2.481875 -8.47183594 2.21375 -7.71679688 1.9375 C-2.33430325 0 -2.33430325 0 0 0 Z " fill="#1DAECF" transform="translate(72,155)"/>
<path d="M0 0 C4.5 2.25 4.5 2.25 6 6 C6.66 6 7.32 6 8 6 C8.66 5.01 9.32 4.02 10 3 C10.66 2.01 11.32 1.02 12 0 C12.66 0 13.32 0 14 0 C14 4.62 14 9.24 14 14 C13.01 14 12.02 14 11 14 C10.67 12.68 10.34 11.36 10 10 C9.01 11.485 9.01 11.485 8 13 C7.01 12.67 6.02 12.34 5 12 C4.67 11.34 4.34 10.68 4 10 C3.67 11.32 3.34 12.64 3 14 C2.01 14 1.02 14 0 14 C0 9.38 0 4.76 0 0 Z " fill="#1C67A5" transform="translate(223,159)"/>
<path d="M0 0 C8.08587944 -0.35672998 8.08587944 -0.35672998 11.5625 1 C13.50609364 3.70413028 13.43977831 5.79705031 13.43359375 9.0625 C12.8623574 11.61505163 12.13845916 12.49842976 10 14 C7.51953125 14.29296875 7.51953125 14.29296875 4.8125 14.1875 C3.224375 14.125625 1.63625 14.06375 0 14 C0 9.38 0 4.76 0 0 Z M3 3 C3 5.64 3 8.28 3 11 C5.41645782 11.16687448 5.41645782 11.16687448 8 11 C8.66 10.34 9.32 9.68 10 9 C9.67958603 6.39719432 9.67958603 6.39719432 9 4 C6.03 3.505 6.03 3.505 3 3 Z " fill="#266AA1" transform="translate(257,159)"/>
<path d="M0 0 C3.3 0 6.6 0 10 0 C9.67 2.97 9.34 5.94 9 9 C7.35 9.33 5.7 9.66 4 10 C6.97 10.495 6.97 10.495 10 11 C10 11.99 10 12.98 10 14 C6.7 14 3.4 14 0 14 C0 9.38 0 4.76 0 0 Z " fill="#186AB7" transform="translate(396,159)"/>
<path d="M0 0 C1.258125 -0.04125 2.51625 -0.0825 3.8125 -0.125 C4.52019531 -0.14820313 5.22789062 -0.17140625 5.95703125 -0.1953125 C8 0 8 0 11 2 C11.25660094 5.07921132 11.39431504 7.21136993 10 10 C10.39938767 12.09821215 10.39938767 12.09821215 11 14 C9.68 13.67 8.36 13.34 7 13 C7 12.34 7 11.68 7 11 C5.68 11 4.36 11 3 11 C3 11.99 3 12.98 3 14 C2.01 14 1.02 14 0 14 C0 9.38 0 4.76 0 0 Z M4 3 C3.67 4.32 3.34 5.64 3 7 C4.65 7 6.3 7 8 7 C8 6.01 8 5.02 8 4 C6.68 3.67 5.36 3.34 4 3 Z " fill="#2368A2" transform="translate(411,159)"/>
<path d="M0 0 C3.00099588 -0.10890711 5.99796378 -0.18773555 9 -0.25 C9.83917969 -0.28351563 10.67835938 -0.31703125 11.54296875 -0.3515625 C17.46335368 -0.44335141 22.13319589 0.460235 27 4 C27.99 5.485 27.99 5.485 29 7 C28.67 7.99 28.34 8.98 28 10 C27.34 9.67 26.68 9.34 26 9 C24.68 10.32 23.36 11.64 22 13 C21.2265625 12.071875 21.2265625 12.071875 20.4375 11.125 C17.45541385 8.52523258 14.81553799 7.88050877 11 7 C11 6.67 11 6.34 11 6 C17.625 4.875 17.625 4.875 21 6 C21.33 5.01 21.66 4.02 22 3 C14.74 3 7.48 3 0 3 C0 2.01 0 1.02 0 0 Z " fill="#14181D" transform="translate(265,115)"/>
<path d="M0 0 C4.0084034 2.0042017 5.41409657 3.49055963 8 7 C8.33 4.69 8.66 2.38 9 0 C9.99 0.33 10.98 0.66 12 1 C12 4.96 12 8.92 12 13 C10.68 13 9.36 13 8 13 C5.75 10.5 5.75 10.5 4 8 C3.67 9.98 3.34 11.96 3 14 C2.01 14 1.02 14 0 14 C0 9.38 0 4.76 0 0 Z " fill="#21609C" transform="translate(366,159)"/>
<path d="M0 0 C3.3 0 6.6 0 10 0 C9.67 1.32 9.34 2.64 9 4 C6.03 3.505 6.03 3.505 3 3 C3 3.66 3 4.32 3 5 C4.98 5 6.96 5 9 5 C9 6.32 9 7.64 9 9 C7.02 9 5.04 9 3 9 C3 9.66 3 10.32 3 11 C5.31 11 7.62 11 10 11 C10 11.99 10 12.98 10 14 C6.7 14 3.4 14 0 14 C0 9.38 0 4.76 0 0 Z " fill="#276AA0" transform="translate(351,159)"/>
<path d="M0 0 C4.10703441 0.85563217 5.55401113 2.24378009 8 5.625 C8.3125 9.4375 8.3125 9.4375 8 12.625 C7.01 13.12 7.01 13.12 6 13.625 C5.34 10.325 4.68 7.025 4 3.625 C1.02982306 4.25310173 1.02982306 4.25310173 -2 5.625 C-3.40257876 8.00619246 -3.40257876 8.00619246 -4 10.625 C-4.33 11.615 -4.66 12.605 -5 13.625 C-3.96593327 14.88449049 -3.96593327 14.88449049 -1.71484375 14.72265625 C-0.79832031 14.71105469 0.11820313 14.69945312 1.0625 14.6875 C1.98160156 14.67847656 2.90070313 14.66945312 3.84765625 14.66015625 C4.55792969 14.64855469 5.26820313 14.63695312 6 14.625 C3.92591982 16.9322608 3.3020422 17.57247092 0.125 18.125 C-3 17.625 -3 17.625 -5.875 15.5625 C-8 12.625 -8 12.625 -8.625 9.125 C-7.67327269 3.79532705 -5.36188723 1.11705984 0 0 Z " fill="#0DB4D1" transform="translate(163,136.375)"/>
<path d="M0 0 C1.33895632 1.66215268 2.67130142 3.32963607 4 5 C4.5775 5.680625 5.155 6.36125 5.75 7.0625 C7 9 7 9 7 13 C4.8125 14.875 4.8125 14.875 2 16 C-2.071875 15.08382812 -4.95449111 12.79171648 -8 10 C-8.33 9.01 -8.66 8.02 -9 7 C-8.34 7 -7.68 7 -7 7 C-6.67 7.66 -6.34 8.32 -6 9 C-5.34 9 -4.68 9 -4 9 C-4 8.01 -4 7.02 -4 6 C-3.34 6 -2.68 6 -2 6 C-2 5.34 -2 4.68 -2 4 C-1.34 4 -0.68 4 0 4 C0 2.68 0 1.36 0 0 Z " fill="#0C88C2" transform="translate(97,116)"/>
<path d="M0 0 C2.97 0 5.94 0 9 0 C8.814375 0.7425 8.62875 1.485 8.4375 2.25 C8.00796892 4.94990963 8.14877026 6.44631077 9 9 C7.02 9 5.04 9 3 9 C3 9.66 3 10.32 3 11 C5.31 11 7.62 11 10 11 C10 11.99 10 12.98 10 14 C6.7 14 3.4 14 0 14 C0 9.38 0 4.76 0 0 Z " fill="#1769B6" transform="translate(243,159)"/>
<path d="M0 0 C0.66 0.33 1.32 0.66 2 1 C1.67 1.61875 1.34 2.2375 1 2.875 C-0.14193235 4.91018344 -0.14193235 4.91018344 0 7 C-0.99 7 -1.98 7 -3 7 C-3.1546875 8.1446875 -3.1546875 8.1446875 -3.3125 9.3125 C-4 12 -4 12 -7 15 C-2.545 14.505 -2.545 14.505 2 14 C1.21625 14.61875 0.4325 15.2375 -0.375 15.875 C-2.96837647 17.89858661 -2.96837647 17.89858661 -5 20 C-8.01305957 19.61121812 -9.39685311 18.73543126 -12 17 C-10.77662342 10.47532489 -7.7344732 6.58685042 -3 2 C-2.01 1.34 -1.02 0.68 0 0 Z " fill="#1086BB" transform="translate(130,125)"/>
<path d="M0 0 C2.475 0.495 2.475 0.495 5 1 C4.01 1.495 4.01 1.495 3 2 C3.97332261 3.19341752 3.97332261 3.19341752 5.76586914 3.11352539 C6.51473389 3.10828857 7.26359863 3.10305176 8.03515625 3.09765625 C8.84404297 3.09443359 9.65292969 3.09121094 10.48632812 3.08789062 C11.7615332 3.07532227 11.7615332 3.07532227 13.0625 3.0625 C13.91650391 3.05798828 14.77050781 3.05347656 15.65039062 3.04882812 C17.76695663 3.03700373 19.88348685 3.01906769 22 3 C22 4.32 22 5.64 22 7 C19.09330538 7.85305168 16.68951127 8.07289715 13.671875 7.87890625 C12.87265625 7.83056641 12.0734375 7.78222656 11.25 7.73242188 C10.425 7.67634766 9.6 7.62027344 8.75 7.5625 C7.90953125 7.51029297 7.0690625 7.45808594 6.203125 7.40429688 C4.1350648 7.27504311 2.0674778 7.13825726 0 7 C0 4.69 0 2.38 0 0 Z " fill="#080B13" transform="translate(432,138)"/>
<path d="M0 0 C3 1 3 1 4.38671875 3.43359375 C4.81597656 4.42488281 5.24523437 5.41617188 5.6875 6.4375 C6.34298828 7.92056641 6.34298828 7.92056641 7.01171875 9.43359375 C8 12 8 12 8 14 C7.01 14 6.02 14 5 14 C4.67 13.34 4.34 12.68 4 12 C2.02 12 0.04 12 -2 12 C-2.33 12.66 -2.66 13.32 -3 14 C-3.99 14 -4.98 14 -6 14 C-4.45941767 8.98491285 -2.97068161 4.3852919 0 0 Z M0 6 C0 6.66 0 7.32 0 8 C0.66 8 1.32 8 2 8 C2 7.34 2 6.68 2 6 C1.34 6 0.68 6 0 6 Z " fill="#226AA4" transform="translate(303,159)"/>
<path d="M0 0 C0.66 1.32 1.32 2.64 2 4 C0 5 0 5 -1.9375 4.375 C-2.618125 4.25125 -3.29875 4.1275 -4 4 C-5.83333333 5.16666667 -5.83333333 5.16666667 -7 7 C-7 7.99 -7 8.98 -7 10 C-4.03 10 -1.06 10 2 10 C1.67 11.32 1.34 12.64 1 14 C-2.32292824 15.04434887 -3.56758901 15.2162055 -6.75 13.625 C-9 12 -9 12 -10 11 C-10.58690745 3.72234763 -10.58690745 3.72234763 -8.375 1 C-5.44617664 -0.23318878 -3.14711179 -0.2145758 0 0 Z " fill="#346CA8" transform="translate(345,159)"/>
<path d="M0 0 C0.66 0.33 1.32 0.66 2 1 C1.67 2.32 1.34 3.64 1 5 C-1.31 4.67 -3.62 4.34 -6 4 C-6 5.65 -6 7.3 -6 9 C-3.23735711 9.59732819 -0.83967231 10 2 10 C1.67 11.32 1.34 12.64 1 14 C-1.64036353 14.97791242 -2.87266632 15.03638105 -5.625 14.25 C-8 13 -8 13 -10 10 C-10.46155369 6.38449608 -10.45406883 4.66363906 -8.375 1.625 C-5.36281721 -0.43596718 -3.5817622 -0.38932198 0 0 Z " fill="#2165A6" transform="translate(292,159)"/>
<path d="M0 0 C4.10703441 0.85563217 5.55401113 2.24378009 8 5.625 C8.79785988 10.09301531 8.51734028 11.87250505 5.9375 15.625 C3 17.625 3 17.625 -0.5625 17.6875 C-4.30475404 16.5308033 -5.85214665 15.88973709 -8 12.625 C-8.5625 9.1875 -8.5625 9.1875 -8 5.625 C-5.55401113 2.24378009 -4.10703441 0.85563217 0 0 Z M-3.875 3.6875 C-5.64273274 6.7319286 -5.36823916 9.1881012 -5 12.625 C-4.16666667 14.79166667 -4.16666667 14.79166667 -2 15.625 C0.76275076 15.55416024 3.26231 15.1186818 6 14.625 C7.13312328 9.26101595 7.13312328 9.26101595 5.9375 4.125 C4.00456274 2.37460792 4.00456274 2.37460792 1 2.1875 C-1.91581411 2.42771929 -1.91581411 2.42771929 -3.875 3.6875 Z " fill="#2AB3C6" transform="translate(47,136.375)"/>
<path d="M0 0 C0 0.99 0 1.98 0 3 C2.97 4.65 5.94 6.3 9 8 C8.34 8.66 7.68 9.32 7 10 C3.875 9.625 3.875 9.625 1 9 C1 8.34 1 7.68 1 7 C0.4225 7.28875 -0.155 7.5775 -0.75 7.875 C-3.875 9.4375 -3.875 9.4375 -7 11 C-8.80411967 8.24075815 -9.0127245 7.11027897 -8.625 3.75 C-8.41875 2.8425 -8.2125 1.935 -8 1 C-5.07175348 0.02391783 -3.04386724 -0.08226668 0 0 Z " fill="#03B5D8" transform="translate(75,123)"/>
<path d="M0 0 C1.875 1.5 1.875 1.5 3 3 C2.67 3.66 2.34 4.32 2 5 C1.34 4.34 0.68 3.68 0 3 C-3.08347826 2.83318891 -3.08347826 2.83318891 -6 3 C-7.13763197 6.43727375 -6.88590871 9.02164469 -6.25 12.5625 C-6.09015625 13.51253906 -5.9303125 14.46257812 -5.765625 15.44140625 C-4.94161196 18.1951233 -4.17456427 19.19335443 -2 21 C-1.34 21.66 -0.68 22.32 0 23 C-0.33 23.66 -0.66 24.32 -1 25 C-0.2575 26.2375 -0.2575 26.2375 0.5 27.5 C1.2425 28.7375 1.2425 28.7375 2 30 C1.67 30.66 1.34 31.32 1 32 C-4.28165208 24.81259717 -9.99240085 16.16090366 -10.5625 7 C-10 4 -10 4 -8.375 1.5625 C-5.31881548 -0.44814771 -3.59350675 -0.53520313 0 0 Z " fill="#27AFC4" transform="translate(86,91)"/>
<path d="M0 0 C0.33 0.66 0.66 1.32 1 2 C2.88764903 2.68472665 2.88764903 2.68472665 5.0625 3.125 C5.79597656 3.29257813 6.52945312 3.46015625 7.28515625 3.6328125 C7.85105469 3.75398437 8.41695313 3.87515625 9 4 C8.34 5.32 7.68 6.64 7 8 C7.66 8.33 8.32 8.66 9 9 C9 9.66 9 10.32 9 11 C3.77825222 11.31330487 0.42308959 10.88015136 -4 8 C-5.375 5.8125 -5.375 5.8125 -6 4 C-5.01 4.33 -4.02 4.66 -3 5 C-2.01 4.34 -1.02 3.68 0 3 C0 2.01 0 1.02 0 0 Z " fill="#0E1119" transform="translate(373,136)"/>
<path d="M0 0 C4.10703441 0.85563217 5.55401113 2.24378009 8 5.625 C8.63127485 9.62307408 8.67917484 11.63235985 6.375 15 C3.47615008 16.98342363 1.5012527 17.47911447 -2 17.625 C-5.36056696 16.50481101 -5.96356066 15.67965901 -8 12.625 C-8.57061018 8.22315002 -8.50756062 6.32662792 -5.875 2.6875 C-3 0.625 -3 0.625 0 0 Z M-4.9375 4.25 C-6.295454 7.28542658 -6.42030443 9.33261528 -6 12.625 C-5 14.625 -5 14.625 -3 15.625 C0.63031776 16.16568562 2.32214079 16.08879841 5.375 14 C7.46379841 10.94714079 7.54068562 9.25531776 7 5.625 C6.06402685 3.60548938 6.06402685 3.60548938 4 2.625 C-0.85275921 1.96414827 -0.85275921 1.96414827 -4.9375 4.25 Z " fill="#2DB2C4" transform="translate(105,194.375)"/>
<path d="M0 0 C3.15788995 0.53751318 4.60856405 1.35021297 6.9375 3.5 C6.6075 4.16 6.2775 4.82 5.9375 5.5 C5.2775 4.84 4.6175 4.18 3.9375 3.5 C1.8894572 3.5950739 1.8894572 3.5950739 -0.0625 4.5 C-1.0525 5.985 -1.0525 5.985 -2.0625 7.5 C-3.0525 7.5 -4.0425 7.5 -5.0625 7.5 C-5.29678313 12.2897321 -5.29678313 12.2897321 -3.0625 16.5 C-6.9375 14.75 -6.9375 14.75 -8.0625 12.5 C-8.55762681 8.12637986 -8.55473866 6.18044756 -5.9375 2.5625 C-3.0625 0.5 -3.0625 0.5 0 0 Z " fill="#25AEC6" transform="translate(105.0625,78.5)"/>
<path d="M0 0 C2.31 0.33 4.62 0.66 7 1 C7.66 2.98 8.32 4.96 9 7 C8 8 8 8 5.4375 8.0625 C4.633125 8.041875 3.82875 8.02125 3 8 C3 8.99 3 9.98 3 11 C2.34 11 1.68 11 1 11 C0.01 8.03 -0.98 5.06 -2 2 C-1.34 2 -0.68 2 0 2 C0 1.34 0 0.68 0 0 Z " fill="#04B6D7" transform="translate(124,150)"/>
<path d="M0 0 C2.99256529 0.30957572 3.88023865 0.86027843 5.875 3.1875 C7 6 7 6 6.3125 9.1875 C5 12 5 12 3 14 C-3.3893952 14.7986744 -8.23025669 12.60044769 -14 10 C-10.06459669 8.83235286 -7.04545671 9.33801617 -3 10 C-2.01 10 -1.02 10 0 10 C1.33981486 10.3062434 2.67511887 10.63451555 4 11 C4 8.69 4 6.38 4 4 C2.68 3.34 1.36 2.68 0 2 C0 1.34 0 0.68 0 0 Z " fill="#2AB5CB" transform="translate(153,161)"/>
<path d="M0 0 C3.96 0 7.92 0 12 0 C11.67 1.32 11.34 2.64 11 4 C9.68 4 8.36 4 7 4 C7 7.3 7 10.6 7 14 C6.34 14 5.68 14 5 14 C5 10.7 5 7.4 5 4 C3.35 3.67 1.7 3.34 0 3 C0 2.01 0 1.02 0 0 Z " fill="#2768A0" transform="translate(381,159)"/>
<path d="M0 0 C0.66 0.66 1.32 1.32 2 2 C-2.50353262 3.75747614 -6.17639811 4.19294408 -11 4 C-11 4.66 -11 5.32 -11 6 C-11.66 6 -12.32 6 -13 6 C-13 6.66 -13 7.32 -13 8 C-13.721875 7.979375 -14.44375 7.95875 -15.1875 7.9375 C-17.91925138 7.99820559 -20.34256091 8.39258535 -23 9 C-20.3099884 5.74264049 -17.01356701 4.46272059 -13.1875 2.8125 C-11.38345703 2.01779297 -11.38345703 2.01779297 -9.54296875 1.20703125 C-6.05241869 0.01785819 -3.64807941 -0.41007608 0 0 Z " fill="#219EC5" transform="translate(155,116)"/>
<path d="M0 0 C3.33233244 3.11734325 4.92733572 4.99155931 5.09765625 9.69921875 C5.08605469 10.68535156 5.07445313 11.67148438 5.0625 12.6875 C5.05347656 13.68136719 5.04445313 14.67523438 5.03515625 15.69921875 C5.02355469 16.45847656 5.01195313 17.21773437 5 18 C4.34 18 3.68 18 3 18 C2.77570313 17.41734375 2.55140625 16.8346875 2.3203125 16.234375 C0.62194647 13.3602171 -1.35834074 12.0944395 -4.125 10.25 C-5.03507812 9.63640625 -5.94515625 9.0228125 -6.8828125 8.390625 C-7.58148438 7.93171875 -8.28015625 7.4728125 -9 7 C-7.1640625 6.34765625 -7.1640625 6.34765625 -5 6 C-2.375 8.4375 -2.375 8.4375 0 11 C0.66 11 1.32 11 2 11 C1.855625 9.741875 1.71125 8.48375 1.5625 7.1875 C1.48128906 6.47980469 1.40007812 5.77210938 1.31640625 5.04296875 C1.02829265 2.80603607 1.02829265 2.80603607 0 0 Z " fill="#20ABC9" transform="translate(87,133)"/>
<path d="M0 0 C2.39073445 3.82517513 2.55966552 7.59665524 3 12 C0.03824877 11.38722388 -1.38058783 10.74627478 -4 9 C-5.1875 5.875 -5.1875 5.875 -6 3 C-3.375 0 -3.375 0 0 0 Z " fill="#03B6D5" transform="translate(87,133)"/>
<path d="M0 0 C1.65 0 3.3 0 5 0 C6.1875 2.6875 6.1875 2.6875 7 6 C5.875 8.875 5.875 8.875 4 11 C2.68 11 1.36 11 0 11 C0.33 8.36 0.66 5.72 1 3 C0.34 2.67 -0.32 2.34 -1 2 C-0.67 1.34 -0.34 0.68 0 0 Z " fill="#08B6D4" transform="translate(153,118)"/>
<path d="M0 0 C2.31 0 4.62 0 7 0 C7 10.23 7 20.46 7 31 C6.34 30.67 5.68 30.34 5 30 C5.33 20.76 5.66 11.52 6 2 C4.35 2.33 2.7 2.66 1 3 C-0.85916824 5.96707046 -0.85916824 5.96707046 -2 9 C-2.66 9 -3.32 9 -4 9 C-2.80100302 5.9168649 -1.52299523 2.93720508 0 0 Z " fill="#161A20" transform="translate(218,115)"/>
<path d="M0 0 C1.65 0.33 3.3 0.66 5 1 C5 2.98 5 4.96 5 7 C3.02 7.99 3.02 7.99 1 9 C1.33 9.66 1.66 10.32 2 11 C1.34 11 0.68 11 0 11 C-0.33 11.66 -0.66 12.32 -1 13 C-1.66 12.67 -2.32 12.34 -3 12 C-3.625 8.9375 -3.625 8.9375 -4 6 C-3.01 5.34 -2.02 4.68 -1 4 C-0.27617533 1.94074861 -0.27617533 1.94074861 0 0 Z " fill="#02B6D8" transform="translate(117,112)"/>
<path d="M0 0 C-0.66 1.65 -1.32 3.3 -2 5 C-2.7425 4.9175 -3.485 4.835 -4.25 4.75 C-7.15871238 4.71858561 -7.15871238 4.71858561 -9.0625 7.0625 C-9.701875 7.701875 -10.34125 8.34125 -11 9 C-13.25 8.75 -13.25 8.75 -15 8 C-13.25050318 3.72943339 -11.09149779 2.63783868 -7.04296875 0.75 C-4.59993699 -0.14686826 -2.5801153 -0.32251441 0 0 Z " fill="#03B3D4" transform="translate(108,159)"/>
<path d="M0 0 C2.475 0.99 2.475 0.99 5 2 C5.33 1.34 5.66 0.68 6 0 C7.76462683 3.08809695 8 4.23312136 8 8 C8.99 8.33 9.98 8.66 11 9 C12.125 15.625 12.125 15.625 11 19 C10.45730469 17.96359375 9.91460937 16.9271875 9.35546875 15.859375 C8.63299391 14.48948764 7.91032757 13.11970127 7.1875 11.75 C6.83107422 11.06808594 6.47464844 10.38617188 6.10742188 9.68359375 C4.28746373 6.24403982 2.47369319 3.02773804 0 0 Z " fill="#1A8CBD" transform="translate(105,164)"/>
<path d="M0 0 C0.66 0 1.32 0 2 0 C1.67 0.99 1.34 1.98 1 3 C0.83322718 6.58343976 0.83322718 6.58343976 1 10 C2.54537736 11.54537736 4.16936595 11.15178764 6.3125 11.25 C10.08649185 11.60456293 10.7448197 11.7448197 13.5625 14.5625 C14.036875 15.366875 14.51125 16.17125 15 17 C8.94864177 16.37934787 2.37506738 14.37506738 -2 10 C-2.31537716 5.66356399 -2.44897847 3.67346771 0 0 Z " fill="#32AEC4" transform="translate(53,117)"/>
<path d="M0 0 C4.57989423 -0.46733615 7.24854513 -0.17261016 10.9375 2.5 C11.948125 3.325 12.95875 4.15 14 5 C13.67 5.66 13.34 6.32 13 7 C10.525 6.01 10.525 6.01 8 5 C8 4.34 8 3.68 8 3 C7.34 3 6.68 3 6 3 C6 3.66 6 4.32 6 5 C4.35 5.33 2.7 5.66 1 6 C-0.0625 4.125 -0.0625 4.125 -1 2 C-0.67 1.34 -0.34 0.68 0 0 Z " fill="#0484C0" transform="translate(107,160)"/>
<path d="M0 0 C1.98362069 2.91708924 1.9876191 4.12380904 1.625 7.75 C1.41875 8.8225 1.2125 9.895 1 11 C-1.97 10.505 -1.97 10.505 -5 10 C-5.59732819 7.23735711 -6 4.83967231 -6 2 C-3 1 -3 1 0 2 C0 1.34 0 0.68 0 0 Z " fill="#02A0CF" transform="translate(142,122)"/>
<path d="M0 0 C0 3 0 3 -1.5 4.6875 C-1.995 5.120625 -2.49 5.55375 -3 6 C-2.34 7.32 -1.68 8.64 -1 10 C-1.99 10.33 -2.98 10.66 -4 11 C-4.33 11.33 -4.66 11.66 -5 12 C-7.0625 11.5625 -7.0625 11.5625 -9 11 C-8.67 10.34 -8.34 9.68 -8 9 C-9.65 9 -11.3 9 -13 9 C-10.15118272 6.82418313 -7.23915912 4.79062001 -4.25 2.8125 C-3.45078125 2.28269531 -2.6515625 1.75289062 -1.828125 1.20703125 C-1.22484375 0.80871094 -0.6215625 0.41039062 0 0 Z " fill="#1691C3" transform="translate(85,146)"/>
<path d="M0 0 C0.33 0 0.66 0 1 0 C1.4247346 4.3322929 1.47048413 6.34962488 -1.125 9.9375 C-4.43148796 12.30954571 -6.0239197 12.46233492 -10 12 C-9 9 -9 9 -7.4375 7.5625 C-5.54862898 5.86323949 -5.54862898 5.86323949 -6 2 C-5.01 2.33 -4.02 2.66 -3 3 C-3.66 3 -4.32 3 -5 3 C-5 3.66 -5 4.32 -5 5 C-4.34 5.33 -3.68 5.66 -3 6 C-2.34 6.66 -1.68 7.32 -1 8 C-0.67 5.36 -0.34 2.72 0 0 Z " fill="#1CAFC9" transform="translate(112,84)"/>
<path d="M0 0 C2.31 0 4.62 0 7 0 C7.66 1.32 8.32 2.64 9 4 C6.36 3.34 3.72 2.68 1 2 C1 11.24 1 20.48 1 30 C1.99 30.33 2.98 30.66 4 31 C2.68 31 1.36 31 0 31 C0 20.77 0 10.54 0 0 Z " fill="#16171B" transform="translate(191,115)"/>
<path d="M0 0 C0.66 0 1.32 0 2 0 C2.33 3.3 2.66 6.6 3 10 C5.97 10.495 5.97 10.495 9 11 C9 11.99 9 12.98 9 14 C6.03 14 3.06 14 0 14 C0 9.38 0 4.76 0 0 Z " fill="#216EA8" transform="translate(315,159)"/>
<path d="M0 0 C7.59952888 0.37374732 13.2402257 2.57589003 20 6 C20 6.33 20 6.66 20 7 C18.35 7 16.7 7 15 7 C14.67 7.99 14.34 8.98 14 10 C14 9.34 14 8.68 14 8 C13.01 8 12.02 8 11 8 C10.7525 7.360625 10.505 6.72125 10.25 6.0625 C9.18437567 3.81258459 9.18437567 3.81258459 6.875 3.25 C5.946875 3.12625 5.946875 3.12625 5 3 C5 2.34 5 1.68 5 1 C3.35 1 1.7 1 0 1 C0 0.67 0 0.34 0 0 Z " fill="#23B1CB" transform="translate(55,116)"/>
<path d="M0 0 C3.1063259 1.2865169 6.2096616 2.58009704 9.3125 3.875 C10.19357422 4.23980469 11.07464844 4.60460937 11.98242188 4.98046875 C13.25375977 5.51220703 13.25375977 5.51220703 14.55078125 6.0546875 C15.72120972 6.54171143 15.72120972 6.54171143 16.9152832 7.03857422 C19 8 19 8 22 10 C15.91026009 10.67663777 11.90269708 8.86291435 6.453125 6.19140625 C3.95710717 4.91348154 3.95710717 4.91348154 1 4 C0.3125 1.9375 0.3125 1.9375 0 0 Z " fill="#2CB2CB" transform="translate(131,151)"/>
<path d="M0 0 C1.98 0.99 1.98 0.99 4 2 C3.67 5.96 3.34 9.92 3 14 C2.01 14 1.02 14 0 14 C0 9.38 0 4.76 0 0 Z " fill="#1763AD" transform="translate(223,159)"/>
<path d="M0 0 C0.99 0.33 1.98 0.66 3 1 C-1.98452012 7.55108359 -1.98452012 7.55108359 -7 9 C-9.64607209 9.13710218 -12.17469013 9.19062972 -14.8125 9.125 C-15.85180664 9.11146484 -15.85180664 9.11146484 -16.91210938 9.09765625 C-18.60822395 9.07426157 -20.30415871 9.03839641 -22 9 C-22 8.67 -22 8.34 -22 8 C-20.44539063 7.81824219 -20.44539063 7.81824219 -18.859375 7.6328125 C-17.48953562 7.46392819 -16.11974651 7.29463589 -14.75 7.125 C-14.06808594 7.04636719 -13.38617188 6.96773437 -12.68359375 6.88671875 C-7.79597016 6.26983422 -4.43140425 5.73813373 -1.25 1.875 C-0.8375 1.25625 -0.425 0.6375 0 0 Z " fill="#12171E" transform="translate(292,137)"/>
<path d="M0 0 C4.81981838 4.1312729 7.7847751 9.03999014 10 15 C9.67 15.66 9.34 16.32 9 17 C8.69707031 16.45730469 8.39414063 15.91460937 8.08203125 15.35546875 C5.56674772 11.06013842 3.68485228 8.14164676 -1 6 C-0.67 4.02 -0.34 2.04 0 0 Z " fill="#1290C1" transform="translate(121,167)"/>
<path d="M0 0 C0.66 1.32 1.32 2.64 2 4 C1.01 4.495 1.01 4.495 0 5 C-0.61875 4.79375 -1.2375 4.5875 -1.875 4.375 C-4.13516236 3.72903966 -4.13516236 3.72903966 -6.25 5.4375 C-6.8275 5.953125 -7.405 6.46875 -8 7 C-8.66 5.68 -9.32 4.36 -10 3 C-6.68152292 -0.06320961 -4.44849969 -0.3033068 0 0 Z " fill="#346A98" transform="translate(345,159)"/>
<path d="M0 0 C0.99 0.33 1.98 0.66 3 1 C4 4 4 4 2.75 6.625 C1 9 1 9 -2 10 C-2.99 8.35 -3.98 6.7 -5 5 C-3.35 3.35 -1.7 1.7 0 0 Z " fill="#0385C4" transform="translate(86,146)"/>
<path d="M0 0 C1.32 0 2.64 0 4 0 C4.33 1.32 4.66 2.64 5 4 C4.01 4.33 3.02 4.66 2 5 C2 5.99 2 6.98 2 8 C-0.31 8.33 -2.62 8.66 -5 9 C-5 8.01 -5 7.02 -5 6 C-4.01 5.67 -3.02 5.34 -2 5 C-0.78130071 2.49552484 -0.78130071 2.49552484 0 0 Z " fill="#018ACC" transform="translate(127,132)"/>
<path d="M0 0 C0.33 0.99 0.66 1.98 1 3 C-4.54908732 8.84903799 -4.54908732 8.84903799 -9.15625 9.1328125 C-9.9296875 9.13023437 -10.703125 9.12765625 -11.5 9.125 C-12.2734375 9.12757813 -13.046875 9.13015625 -13.84375 9.1328125 C-16 9 -16 9 -19 8 C-19 7.34 -19 6.68 -19 6 C-18.20335937 6.02320313 -17.40671875 6.04640625 -16.5859375 6.0703125 C-8.53443308 6.40263043 -8.53443308 6.40263043 -1 4 C-0.03122943 1.96756452 -0.03122943 1.96756452 0 0 Z " fill="#14191F" transform="translate(423,138)"/>
<path d="M0 0 C4.84146109 1.46710942 8.55948972 4.3512744 12 8 C12 8.66 12 9.32 12 10 C9.13275314 9.42655063 8.1385485 9.1385485 6 7 C3.68351201 5.96157435 1.35096976 4.9578025 -1 4 C-0.67 2.68 -0.34 1.36 0 0 Z " fill="#1FB0CD" transform="translate(75,123)"/>
<path d="M0 0 C0.99 0 1.98 0 3 0 C3 4.62 3 9.24 3 14 C2.01 14 1.02 14 0 14 C0 9.38 0 4.76 0 0 Z " fill="#256398" transform="translate(275,159)"/>
<path d="M0 0 C0.66 0 1.32 0 2 0 C2.17015625 0.62648438 2.3403125 1.25296875 2.515625 1.8984375 C2.75796875 2.71570313 3.0003125 3.53296875 3.25 4.375 C3.59804687 5.59316406 3.59804687 5.59316406 3.953125 6.8359375 C5.2214892 9.45785454 6.32423308 9.99382318 9 11 C8.67 11.99 8.34 12.98 8 14 C8.98189187 15.67739862 9.98133771 17.34467377 11 19 C10.67 19.66 10.34 20.32 10 21 C0 6.9 0 6.9 0 0 Z " fill="#2698BB" transform="translate(77,102)"/>
<path d="M0 0 C0.66 0.66 1.32 1.32 2 2 C-2.85359495 6.01676824 -8.04972335 5.28136159 -14 5 C-14.33 6.32 -14.66 7.64 -15 9 C-15.38218767 7.34385343 -15.71395102 5.67542976 -16 4 C-13.90826918 1.90826918 -9.59417121 2.55664359 -6.76171875 2.37890625 C-4.06874012 2.00943111 -2.32542737 1.36432437 0 0 Z " fill="#13171C" transform="translate(325,133)"/>
<path d="M0 0 C0.98120464 3.05263664 0.98120464 4.94736336 0 8 C-1.65 7.67 -3.3 7.34 -5 7 C-5.33 5.02 -5.66 3.04 -6 1 C-4 0 -4 0 0 0 Z " fill="#02B2D4" transform="translate(63,161)"/>
<path d="M0 0 C3.1875 0.4375 3.1875 0.4375 6.0625 2.5 C8.65798413 6.08787512 8.6122346 8.1052071 8.1875 12.4375 C7.1975 12.9325 7.1975 12.9325 6.1875 13.4375 C5.5275 10.1375 4.8675 6.8375 4.1875 3.4375 C1.2175 3.1075 -1.7525 2.7775 -4.8125 2.4375 C-2.8125 0.4375 -2.8125 0.4375 0 0 Z " fill="#30ACBE" transform="translate(162.8125,136.5625)"/>
<path d="M0 0 C0.33 0 0.66 0 1 0 C1.33 2.31 1.66 4.62 2 7 C4.97 7.33 7.94 7.66 11 8 C11 7.01 11 6.02 11 5 C11.66 5 12.32 5 13 5 C11.25 9.875 11.25 9.875 9 11 C3.82568807 11.44036697 3.82568807 11.44036697 1.125 10 C-0.70488947 6.74686316 -0.18128355 3.68609891 0 0 Z " fill="#31B2C5" transform="translate(76,189)"/>
<path d="M0 0 C2.86724686 0.57344937 3.8614515 0.8614515 6 3 C8.06874034 3.6425235 8.06874034 3.6425235 10 4 C9.34 5.65 8.68 7.3 8 9 C7.01 8.67 6.02 8.34 5 8 C5 7.34 5 6.68 5 6 C4.34 6 3.68 6 3 6 C2.01 4.02 1.02 2.04 0 0 Z " fill="#038BC7" transform="translate(85,117)"/>
<path d="M0 0 C0.66 0 1.32 0 2 0 C2 2.31 2 4.62 2 7 C-0.29141286 7.05384521 -2.58318188 7.09272087 -4.875 7.125 C-6.78925781 7.15980469 -6.78925781 7.15980469 -8.7421875 7.1953125 C-12 7 -12 7 -14 5 C-13.11248047 5.01740234 -13.11248047 5.01740234 -12.20703125 5.03515625 C-7.99768215 5.08322386 -4.1077667 5.06006883 0 4 C0 2.68 0 1.36 0 0 Z " fill="#111419" transform="translate(452,115)"/>
<path d="M0 0 C0.99 0.33 1.98 0.66 3 1 C2.67 4.63 2.34 8.26 2 12 C0.68 11.34 -0.64 10.68 -2 10 C-2 9.34 -2 8.68 -2 8 C-1.34 8 -0.68 8 0 8 C0 5.36 0 2.72 0 0 Z " fill="#1969A9" transform="translate(375,159)"/>
<path d="M0 0 C0.66 0.66 1.32 1.32 2 2 C1.1646875 1.93039063 1.1646875 1.93039063 0.3125 1.859375 C-5.13487011 1.60172912 -8.53435036 2.33270872 -13.17578125 5.22265625 C-15.49267282 6.20993981 -16.66979234 5.81788746 -19 5 C-12.8453777 0.83745352 -7.51370048 -1.3493413 0 0 Z " fill="#27AEC8" transform="translate(110,158)"/>
<path d="M0 0 C1.258125 0.12375 2.51625 0.2475 3.8125 0.375 C4.87404297 0.47941406 4.87404297 0.47941406 5.95703125 0.5859375 C8 1 8 1 11 3 C10.67 3.99 10.34 4.98 10 6 C8.68 5.67 7.36 5.34 6 5 C5.67 5.66 5.34 6.32 5 7 C0 1.125 0 1.125 0 0 Z " fill="#080B11" transform="translate(411,116)"/>
<path d="M0 0 C11.70615034 1.55808656 11.70615034 1.55808656 16 6 C15.67 7.32 15.34 8.64 15 10 C14.80664062 9.38640625 14.61328125 8.7728125 14.4140625 8.140625 C12.32553073 4.97898023 9.96522451 4.73555183 6.375 3.75 C5.18648438 3.41484375 3.99796875 3.0796875 2.7734375 2.734375 C1.85820312 2.49203125 0.94296875 2.2496875 0 2 C0 1.34 0 0.68 0 0 Z " fill="#171A1F" transform="translate(408,126)"/>
<path d="M0 0 C1 2 1 2 0.00390625 5.0390625 C-0.47175781 6.22242188 -0.94742188 7.40578125 -1.4375 8.625 C-1.91058594 9.81351563 -2.38367188 11.00203125 -2.87109375 12.2265625 C-3.24363281 13.14179688 -3.61617188 14.05703125 -4 15 C-6.17280453 6.34560907 -6.17280453 6.34560907 -5 4 C-4.34 4 -3.68 4 -3 4 C-3 3.34 -3 2.68 -3 2 C-2.01 1.34 -1.02 0.68 0 0 Z " fill="#1FAEC8" transform="translate(94,179)"/>
<path d="M0 0 C0 5.81958694 -4.13261329 11.05622981 -7 16 C-7.66 16 -8.32 16 -9 16 C-7.50851242 10.18319845 -4.28706435 4.28706435 0 0 Z " fill="#26AFC3" transform="translate(88,167)"/>
<path d="M0 0 C1.98 0.99 1.98 0.99 4 2 C3.01 2.495 3.01 2.495 2 3 C1.34786708 5.02463255 1.34786708 5.02463255 1 7 C1.66 7 2.32 7 3 7 C3 9.31 3 11.62 3 14 C2.01 14 1.02 14 0 14 C0 9.38 0 4.76 0 0 Z " fill="#2A699B" transform="translate(366,159)"/>
<path d="M0 0 C5.75 -0.125 5.75 -0.125 8 1 C7.67 2.32 7.34 3.64 7 5 C4.36 4.67 1.72 4.34 -1 4 C-0.67 2.68 -0.34 1.36 0 0 Z " fill="#296697" transform="translate(286,159)"/>
<path d="M0 0 C3.3 0 6.6 0 10 0 C10 1.32 10 2.64 10 4 C7.69 4 5.38 4 3 4 C3 3.34 3 2.68 3 2 C2.01 1.67 1.02 1.34 0 1 C0 0.67 0 0.34 0 0 Z " fill="#2A6AA1" transform="translate(396,159)"/>
<path d="M0 0 C0.66 0.33 1.32 0.66 2 1 C-2.78567949 5.94520214 -2.78567949 5.94520214 -6.1640625 6.09765625 C-7.38222656 6.08025391 -7.38222656 6.08025391 -8.625 6.0625 C-9.85089844 6.04896484 -9.85089844 6.04896484 -11.1015625 6.03515625 C-12.04128906 6.01775391 -12.04128906 6.01775391 -13 6 C-13 5.01 -13 4.02 -13 3 C-12.39671875 3.03480469 -11.7934375 3.06960937 -11.171875 3.10546875 C-6.07474512 3.3514449 -6.07474512 3.3514449 -1.4375 1.5 C-0.963125 1.005 -0.48875 0.51 0 0 Z " fill="#17191F" transform="translate(286,135)"/>
<path d="M0 0 C0.33 0.66 0.66 1.32 1 2 C5.29 2 9.58 2 14 2 C13.67 2.99 13.34 3.98 13 5 C8.48382401 5.07654536 4.40914783 5.10228696 0 4 C0 2.68 0 1.36 0 0 Z " fill="#181B21" transform="translate(241,125)"/>
<path d="M0 0 C0.66 0.66 1.32 1.32 2 2 C-2.50353262 3.75747614 -6.17639811 4.19294408 -11 4 C-11 3.34 -11 2.68 -11 2 C-7.18610442 0.20522561 -4.21354337 -0.37453719 0 0 Z " fill="#21AFCD" transform="translate(155,116)"/>
<path d="M0 0 C1.98 0 3.96 0 6 0 C6 1.32 6 2.64 6 4 C2.25 5.125 2.25 5.125 0 4 C0 5.65 0 7.3 0 9 C-0.33 9 -0.66 9 -1 9 C-1.125 2.25 -1.125 2.25 0 0 Z " fill="#14B3CE" transform="translate(52,163)"/>
<path d="M0 0 C0.33 0 0.66 0 1 0 C1.13277344 0.56589844 1.26554688 1.13179687 1.40234375 1.71484375 C1.57894531 2.44832031 1.75554687 3.18179688 1.9375 3.9375 C2.11152344 4.66839844 2.28554687 5.39929688 2.46484375 6.15234375 C2.83887569 7.99969898 2.83887569 7.99969898 4 9 C5.68608966 9.07205511 7.37500659 9.08386068 9.0625 9.0625 C9.98160156 9.05347656 10.90070313 9.04445312 11.84765625 9.03515625 C12.55792969 9.02355469 13.26820313 9.01195312 14 9 C11.92591982 11.3072608 11.3020422 11.94747092 8.125 12.5 C5 12 5 12 2.125 9.9375 C-0.47048413 6.34962488 -0.4247346 4.3322929 0 0 Z " fill="#3AACC1" transform="translate(155,142)"/>
<path d="M0 0 C3.46464111 0.27173656 4.68165104 0.93690865 7.1875 3.25 C6.8575 3.91 6.5275 4.57 6.1875 5.25 C5.8575 4.92 5.5275 4.59 5.1875 4.25 C3.71101124 4.15176004 2.22974583 4.12026481 0.75 4.125 C-0.05308594 4.12242188 -0.85617188 4.11984375 -1.68359375 4.1171875 C-3.86647931 4.11421674 -3.86647931 4.11421674 -5.8125 5.25 C-3.41924157 0.30393258 -3.41924157 0.30393258 0 0 Z " fill="#2BB1C1" transform="translate(126.8125,90.75)"/>
<path d="M0 0 C-2.34109882 1.56073255 -4.56333403 2.86373867 -7.0625 4.125 C-8.10083984 4.65480469 -8.10083984 4.65480469 -9.16015625 5.1953125 C-11 6 -11 6 -13 6 C-13 5.34 -13 4.68 -13 4 C-11.68 3.34 -10.36 2.68 -9 2 C-9 1.34 -9 0.68 -9 0 C-5.93109813 -1.53445094 -3.29905734 -0.54984289 0 0 Z " fill="#269BC0" transform="translate(145,133)"/>
<path d="M0 0 C0.99 0.33 1.98 0.66 3 1 C3 1.99 3 2.98 3 4 C1.02 4.99 1.02 4.99 -1 6 C-1 6.99 -1 7.98 -1 9 C0.65 9 2.3 9 4 9 C4 9.33 4 9.66 4 10 C2.02 10 0.04 10 -2 10 C-3.06351675 6.61608307 -3.21442982 5.4195366 -1.5625 2.1875 C-1.046875 1.465625 -0.53125 0.74375 0 0 Z " fill="#2670AB" transform="translate(303,159)"/>
<path d="M0 0 C0 0.99 0 1.98 0 3 C-3.3 3 -6.6 3 -10 3 C-10 2.34 -10 1.68 -10 1 C-6.78548731 -0.60725635 -3.56387464 -0.05748185 0 0 Z " fill="#2A689A" transform="translate(253,170)"/>
<path d="M0 0 C0.66 0.33 1.32 0.66 2 1 C1.52797514 5.24822374 -0.96655518 7.19989709 -4 10 C-3.51421457 6.87709365 -3.0013988 4.00419641 -2 1 C-1.34 0.67 -0.68 0.34 0 0 Z " fill="#1480B4" transform="translate(89,150)"/>
<path d="M0 0 C1.32 0.66 2.64 1.32 4 2 C1.69344355 4.30655645 0.13499743 5.125117 -3 6 C-5.8125 5.125 -5.8125 5.125 -8 4 C-6.125 2.9375 -6.125 2.9375 -4 2 C-3.34 2.33 -2.68 2.66 -2 3 C-1.34 2.01 -0.68 1.02 0 0 Z " fill="#0F1219" transform="translate(419,131)"/>
<path d="M0 0 C3 1 3 1 4 3 C6.01669827 4.13350534 6.01669827 4.13350534 8 5 C5.69 5.33 3.38 5.66 1 6 C0.67 7.32 0.34 8.64 0 10 C0 6.7 0 3.4 0 0 Z " fill="#1260AD" transform="translate(396,160)"/>
<path d="M0 0 C1.67542976 0.28604898 3.34385343 0.61781233 5 1 C4.67 1.66 4.34 2.32 4 3 C3.01 3.33 2.02 3.66 1 4 C0.67 4.66 0.34 5.32 0 6 C0.66 6 1.32 6 2 6 C2 6.66 2 7.32 2 8 C0.68 7.67 -0.64 7.34 -2 7 C-1.125 1.125 -1.125 1.125 0 0 Z " fill="#131619" transform="translate(401,137)"/>
<path d="M0 0 C0 0.99 0 1.98 0 3 C-3.3 3 -6.6 3 -10 3 C-8.0130571 -0.97388579 -3.91761109 -0.08705802 0 0 Z " fill="#2F699A" transform="translate(406,170)"/>
<path d="M0 0 C1.5 1.375 1.5 1.375 3 3 C3 3.66 3 4.32 3 5 C4.65 5.33 6.3 5.66 8 6 C6.25 7.125 6.25 7.125 4 8 C1.75 7.125 1.75 7.125 0 6 C0 4.02 0 2.04 0 0 Z " fill="#226DAC" transform="translate(335,164)"/>
<path d="M0 0 C0.99 0.33 1.98 0.66 3 1 C3 2.98 3 4.96 3 7 C2.01 6.67 1.02 6.34 0 6 C0 5.01 0 4.02 0 3 C-1.65 3 -3.3 3 -5 3 C-5 2.34 -5 1.68 -5 1 C-3.35 1 -1.7 1 0 1 C0 0.67 0 0.34 0 0 Z " fill="#23649F" transform="translate(419,160)"/>
<path d="M0 0 C0.86625 0.556875 0.86625 0.556875 1.75 1.125 C-0.5625 3.1875 -0.5625 3.1875 -3.25 5.125 C-4.24 4.795 -5.23 4.465 -6.25 4.125 C-6.25 3.135 -6.25 2.145 -6.25 1.125 C-2.80384615 -1.09038462 -2.80384615 -1.09038462 0 0 Z " fill="#1390BC" transform="translate(81.25,161.875)"/>
<path d="M0 0 C-0.33 0.99 -0.66 1.98 -1 3 C-3.64 3 -6.28 3 -9 3 C-9 2.34 -9 1.68 -9 1 C-3.375 -1.125 -3.375 -1.125 0 0 Z " fill="#2675B1" transform="translate(269,169)"/>
<path d="M0 0 C0.33 0.99 0.66 1.98 1 3 C-1.40545638 4.20272819 -2.94996953 4.10071472 -5.625 4.0625 C-6.85089844 4.04896484 -6.85089844 4.04896484 -8.1015625 4.03515625 C-9.04128906 4.01775391 -9.04128906 4.01775391 -10 4 C-9.67 3.34 -9.34 2.68 -9 2 C-6.93359375 1.3671875 -6.93359375 1.3671875 -4.4375 0.875 C-3.61121094 0.70742187 -2.78492188 0.53984375 -1.93359375 0.3671875 C-0.97646484 0.18542969 -0.97646484 0.18542969 0 0 Z " fill="#191B21" transform="translate(320,129)"/>
<path d="M0 0 C0.66 0 1.32 0 2 0 C2.33 0.66 2.66 1.32 3 2 C6.02934491 2.65772428 6.02934491 2.65772428 9 3 C8.67 4.32 8.34 5.64 8 7 C4.59679258 5.98823563 3.24274669 5.35156418 1.1875 2.375 C0.795625 1.59125 0.40375 0.8075 0 0 Z " fill="#1B87B4" transform="translate(88,123)"/>
<path d="M0 0 C2.97 0 5.94 0 9 0 C9 1.32 9 2.64 9 4 C5.85262818 3.30058404 2.97411124 2.23921302 0 1 C0 0.67 0 0.34 0 0 Z " fill="#306793" transform="translate(243,159)"/>
<path d="M0 0 C2.31 0 4.62 0 7 0 C7 0.99 7 1.98 7 3 C4.69 3 2.38 3 0 3 C0 2.01 0 1.02 0 0 Z " fill="#070A12" transform="translate(247,129)"/>
<path d="M0 0 C0.99 0.66 1.98 1.32 3 2 C2.67 4.97 2.34 7.94 2 11 C0.49440461 9.03617993 -0.89131683 7.21736634 -2 5 C-1.01 4.34 -0.02 3.68 1 3 C0.67 2.01 0.34 1.02 0 0 Z " fill="#16B2CB" transform="translate(131,94)"/>
<path d="M0 0 C3.55007718 3.9050849 4.81819916 6.97734643 6 12 C3.37591634 9.62582907 1.61386598 7.15088121 0 4 C0 2.68 0 1.36 0 0 Z " fill="#2497BC" transform="translate(125,172)"/>
<path d="M0 0 C0.99 0 1.98 0 3 0 C2.67 1.32 2.34 2.64 2 4 C-1.01031744 4.93423645 -1.86650268 5.04449911 -5 4 C-5 3.34 -5 2.68 -5 2 C-3.35 1.67 -1.7 1.34 0 1 C0 0.67 0 0.34 0 0 Z " fill="#2E72A7" transform="translate(291,169)"/>
<path d="M0 0 C2.475 0.99 2.475 0.99 5 2 C4.67 3.32 4.34 4.64 4 6 C2.68 5.67 1.36 5.34 0 5 C0 3.35 0 1.7 0 0 Z " fill="#166DB5" transform="translate(367,161)"/>
<path d="M0 0 C3.63 0 7.26 0 11 0 C10.67 0.66 10.34 1.32 10 2 C2.58823529 3.29411765 2.58823529 3.29411765 0 2 C0 1.34 0 0.68 0 0 Z " fill="#13151E" transform="translate(406,139)"/>
<path d="M0 0 C1.625 1.625 1.625 1.625 3 4 C2.1875 7.25 2.1875 7.25 1 10 C-0.80411967 7.24075815 -1.0127245 6.11027897 -0.625 2.75 C-0.41875 1.8425 -0.2125 0.935 0 0 Z " fill="#1CB6CF" transform="translate(157,118)"/>
<path d="M0 0 C0.9659657 2.60810739 1.02770914 3.89420147 0.3125 6.625 C-1.16625774 9.30084735 -2.17750049 9.96508351 -5 11 C-3.55049545 7.2089881 -1.84827434 3.6125362 0 0 Z " fill="#22ADC6" transform="translate(114,112)"/>
<path d="M0 0 C2.18975773 3.28463659 2.99806563 6.20696275 4 10 C2.35 9.01 0.7 8.02 -1 7 C-0.67 4.69 -0.34 2.38 0 0 Z " fill="#1BA8C6" transform="translate(89,97)"/>
<path d="M0 0 C2.97 0.495 2.97 0.495 6 1 C4.35 2.65 2.7 4.3 1 6 C0.01 5.34 -0.98 4.68 -2 4 C-1.34 2.68 -0.68 1.36 0 0 Z " fill="#22639A" transform="translate(337,160)"/>
<path d="M0 0 C3.79588866 0.54226981 5.47211993 2.20127563 8 5 C2.25 4.125 2.25 4.125 0 3 C0 2.01 0 1.02 0 0 Z " fill="#25B6D2" transform="translate(60,129)"/>
<path d="M0 0 C0.66 0.66 1.32 1.32 2 2 C1.625 4.625 1.625 4.625 1 7 C0.01 6.67 -0.98 6.34 -2 6 C-2 4.68 -2 3.36 -2 2 C-1.34 2 -0.68 2 0 2 C0 1.34 0 0.68 0 0 Z " fill="#0A83BC" transform="translate(98,125)"/>
<path d="M0 0 C0.99 0 1.98 0 3 0 C4.125 6.625 4.125 6.625 3 10 C2.49818809 8.52144705 1.99859924 7.04213942 1.5 5.5625 C1.2215625 4.73878906 0.943125 3.91507813 0.65625 3.06640625 C0 1 0 1 0 0 Z " fill="#1895C4" transform="translate(113,173)"/>
<path d="M0 0 C1.5625 1.25 1.5625 1.25 3 3 C2.6875 5.1875 2.6875 5.1875 2 7 C2.99 7.33 3.98 7.66 5 8 C3.68 8 2.36 8 1 8 C-0.35439668 5.29120665 -0.06501451 2.99066732 0 0 Z " fill="#26649B" transform="translate(227,163)"/>
<path d="M0 0 C0.33 0 0.66 0 1 0 C1.49230769 6.4 1.49230769 6.4 -1 9.4375 C-1.99 10.2109375 -1.99 10.2109375 -3 11 C-3.66 10.67 -4.32 10.34 -5 10 C-4.360625 9.46375 -3.72125 8.9275 -3.0625 8.375 C-0.61470596 5.55632807 -0.33285388 3.66139268 0 0 Z " fill="#37ACC2" transform="translate(112,200)"/>
<path d="M0 0 C0.33 0 0.66 0 1 0 C1 2.64 1 5.28 1 8 C-0.98 8.33 -2.96 8.66 -5 9 C-4.34 8.01 -3.68 7.02 -3 6 C-2.01 6 -1.02 6 0 6 C0 4.02 0 2.04 0 0 Z " fill="#18AFC9" transform="translate(133,189)"/>
<path d="M0 0 C3.465 1.98 3.465 1.98 7 4 C7 4.99 7 5.98 7 7 C4.525 6.01 4.525 6.01 2 5 C2 4.01 2 3.02 2 2 C1.34 2 0.68 2 0 2 C0 1.34 0 0.68 0 0 Z " fill="#208AB3" transform="translate(113,160)"/>
<path d="M0 0 C2.64 0 5.28 0 8 0 C8 0.99 8 1.98 8 3 C2.25 2.25 2.25 2.25 0 0 Z " fill="#3076A7" transform="translate(352,160)"/>
<path d="M0 0 C3.3 0 6.6 0 10 0 C10 0.33 10 0.66 10 1 C8.02 1 6.04 1 4 1 C4 1.66 4 2.32 4 3 C2.68 3 1.36 3 0 3 C0 2.01 0 1.02 0 0 Z " fill="#3178AE" transform="translate(382,160)"/>
<path d="M0 0 C2.31 0 4.62 0 7 0 C7 1.65 7 3.3 7 5 C4.11562221 3.70700306 2.12780579 2.34058637 0 0 Z " fill="#27AFCF" transform="translate(125,161)"/>
<path d="M0 0 C3.36591866 1.44253657 5.51047079 3.33264727 8 6 C5.69 5.34 3.38 4.68 1 4 C0.67 2.68 0.34 1.36 0 0 Z " fill="#25ADCC" transform="translate(122,145)"/>
<path d="M0 0 C0.33 0.99 0.66 1.98 1 3 C0.34 3.66 -0.32 4.32 -1 5 C-3.625 4.625 -3.625 4.625 -6 4 C-6 3.34 -6 2.68 -6 2 C-4.7934375 1.7834375 -4.7934375 1.7834375 -3.5625 1.5625 C-1.07896294 1.25864751 -1.07896294 1.25864751 0 0 Z " fill="#12141B" transform="translate(211,138)"/>
<path d="M0 0 C0.33 0.66 0.66 1.32 1 2 C2.88764903 2.68472665 2.88764903 2.68472665 5.0625 3.125 C5.79597656 3.29257813 6.52945312 3.46015625 7.28515625 3.6328125 C7.85105469 3.75398437 8.41695313 3.87515625 9 4 C9 4.33 9 4.66 9 5 C5.625 5.125 5.625 5.125 2 5 C1.34 4.34 0.68 3.68 0 3 C0 2.01 0 1.02 0 0 Z " fill="#161821" transform="translate(373,136)"/>
<path d="M0 0 C0.66 0.33 1.32 0.66 2 1 C-0.12055614 4.1808342 -1.63050557 5.31525278 -5 7 C-5.66 6.67 -6.32 6.34 -7 6 C-4.69 4.02 -2.38 2.04 0 0 Z " fill="#2D8DB7" transform="translate(130,125)"/>
<path d="M0 0 C0.66 0 1.32 0 2 0 C0.94124926 3.40312738 -0.00902154 6.01353231 -2 9 C-2.66 9 -3.32 9 -4 9 C-2.80100302 5.9168649 -1.52299523 2.93720508 0 0 Z " fill="#10141D" transform="translate(218,115)"/>
<path d="M0 0 C0.33 0 0.66 0 1 0 C1 2.64 1 5.28 1 8 C0.01 7.34 -0.98 6.68 -2 6 C-2 4.68 -2 3.36 -2 2 C-1.34 2 -0.68 2 0 2 C0 1.34 0 0.68 0 0 Z " fill="#1F629E" transform="translate(269,162)"/>
</svg>
